<?xml version="1.0" encoding="utf-8"?>
<!-- Generator: Adobe Illustrator 16.0.0, SVG Export Plug-In . SVG Version: 6.00 Build 0)  -->
<!DOCTYPE svg PUBLIC "-//W3C//DTD SVG 1.1//EN" "http://www.w3.org/Graphics/SVG/1.1/DTD/svg11.dtd">
<svg version="1.1" id="Livello_1" xmlns="http://www.w3.org/2000/svg" xmlns:xlink="http://www.w3.org/1999/xlink" x="0px" y="0px"
	 width="150.202px" height="43.711px" viewBox="13.472 1.658 150.202 43.711" enable-background="new 13.472 1.658 150.202 43.711"
	 xml:space="preserve">
<g transform="translate(-259.99809,-495.86218)">
	<g transform="matrix(1.2713012,0,0,1.272309,-57.255124,307.68769)">
		<path d="M430.47,205.276"/>
		<path d="M249.55,147.9"/>
		<path d="M249.55,205.276"/>
		<g>
			<g>
				<g>
					<path fill="#067B36" d="M260.147,176.485c0,3.907,3.169,7.074,7.079,7.074h103.99c3.91,0,7.079-3.167,7.079-7.074v-20.208
						c0-3.907-3.169-7.074-7.079-7.074h-103.99c-3.91,0-7.079,3.167-7.079,7.074V176.485z"/>
				</g>
			</g>
			<g>
				<path fill="#FFFFFF" d="M355.195,158.9l-1.332,3.47h-9.983l-4.852,12.643h-7.153l4.852-12.643h-8.523
					c0,0,1.003-2.726-2.228-3.47H355.195L355.195,158.9z"/>
				<path fill="#FFFFFF" d="M321.915,159.04c-1.198-0.122-1.735-0.139-6.03-0.139h-15.358l-1.327,3.461h15.354
					c2.984,0.024,3.05,0.024,3.472,0.146c0.795,0.215,0.953,0.583,0.678,1.301c-0.263,0.686-0.571,0.962-1.319,1.253
					c-0.665,0.241-0.798,0.241-3.971,0.264l-15.352-0.011l-3.716,9.688h6.821l2.533-6.603h8.606c4.84,0,6.389-0.097,8.036-0.458
					c2.995-0.703,4.223-1.626,5.174-4.115C326.55,161.136,325.969,159.498,321.915,159.04z"/>
			</g>
		</g>
		<path fill="#DF0615" d="M371.823,164.698c-0.664-3.566-1.112-5.808-1.112-5.808s-2.252,0.384-5.819,1.042
			c-1.884,0.351-6.297,1.392-8.187,4.142c-1.262,1.836-0.797,4.346,1.037,5.607c1.204,0.827,2.695,0.91,3.94,0.352
			c0.108-0.032,0.242-0.024,0.349,0.049c0.174,0.118,0.245,0.346,0.125,0.482c-0.81,0.901-3.042,2.958-5.803,2.271l6.482,4.459
			c-1.63-2.335-0.509-5.155,0.041-6.233c0.086-0.161,0.324-0.175,0.496-0.058c0.104,0.074,0.161,0.198,0.171,0.309
			c-0.074,1.359,0.535,2.726,1.739,3.552c1.834,1.263,4.345,0.797,5.606-1.037C372.777,171.075,372.168,166.58,371.823,164.698"/>
		<polygon id="polygon3100" fill="#FFFFFF" points="365.722,171.208 364.542,167.869 361.002,167.958 363.812,165.809 
			362.632,162.468 365.542,164.478 368.352,162.328 367.343,165.718 370.263,167.718 366.722,167.809 		"/>
	</g>
</g>
<path fill="#FFFFFF" d="M55.658,14.174c-1.521-0.155-2.205-0.177-7.666-0.177H28.468L26.781,18.4h19.52
	c3.793,0.03,3.877,0.03,4.414,0.186c1.01,0.273,1.211,0.742,0.861,1.655c-0.334,0.873-0.725,1.224-1.676,1.595
	c-0.846,0.307-1.016,0.307-5.049,0.336l-19.517-0.015L20.61,34.484h8.671l3.22-8.402h10.941c6.152,0,8.121-0.123,10.215-0.582
	c3.809-0.895,5.369-2.068,6.578-5.236C61.553,16.84,60.813,14.756,55.658,14.174z"/>
<path fill="#FFFFFF" d="M45.31,24.002l9.798,10.482l-7.813,0.012l-8.936-9.86"/>
</svg>
